# xmcd
#
# Track frame offsets:
#	150
#	5495
#	23297
#	44330
#	61912
#	85535
#
# Disc length: 1388 seconds
#
# Revision: 1
# Processed by: cddbd v1.5.1PL0 Copyright (c) Steve Scherf et al.
# Submitted via: CDex 1.50Beta5
#
DISCID=34056a06
DTITLE=松崎ナオ - Flor Trem
DYEAR=2003
DGENRE=Pop
TTITLE0=大人サンバ
TTITLE1=Flower Children
TTITLE2=Passin' Away
TTITLE3=True Colors
TTITLE4=交差点の置き手紙
TTITLE5=つめたいあたたかい
EXTD=
EXTT0=
EXTT1=
EXTT2=
EXTT3=
EXTT4=
EXTT5=
PLAYORDER=
